<svg width="987" height="303" viewBox="0 0 987 303" fill="none" xmlns="http://www.w3.org/2000/svg">
<path d="M894.878 36.7627C895.54 36.7627 896.534 36.7626 896.865 35.7699C897.196 35.4389 897.196 35.108 897.196 34.7771C897.196 34.1189 896.865 33.4534 896.203 33.1225C895.54 32.7916 894.878 32.7916 893.885 32.7916H893.223V36.4281H894.878M893.885 31.1406C895.54 31.1406 896.534 31.1406 897.196 31.4715C899.51 32.1333 899.51 34.4462 899.51 35.108C899.51 35.439 899.51 35.7699 899.51 36.0972C899.51 36.7626 899.179 37.7518 897.854 38.4137C897.854 38.4137 897.523 38.7446 897.196 38.7446L900.172 44.0321H897.196L894.878 39.0719H893.223V44.0321H890.582V31.1406H893.885ZM894.878 49.3233C901.161 49.3233 906.455 44.363 906.455 37.7518C906.455 31.1406 901.492 26.1804 894.878 26.1804C888.595 26.1804 883.302 31.4715 883.302 37.7518C883.302 44.0321 888.595 49.3233 894.878 49.3233ZM885.95 37.7518C885.95 32.7916 889.916 28.8277 895.209 28.8277C900.172 28.8277 904.137 32.7916 904.137 37.7518C904.137 42.712 900.172 46.6795 895.209 46.6795C889.916 47.0104 885.95 42.712 885.95 37.7518ZM805.587 111.468C790.372 111.468 777.475 101.22 773.509 87.3361H857.838L869.415 69.157H773.509C777.475 55.2727 790.372 45.0249 805.587 45.0249H863.463L875.036 26.8422H804.262C775.819 26.8422 753.001 49.9851 753.001 78.0811C753.001 106.512 776.15 129.32 804.262 129.32H865.118L876.687 111.141H805.587M564.162 129.32H625.345L636.918 111.141H565.817C547.295 111.141 532.411 96.2638 532.411 78.0811C532.411 59.5711 547.295 45.0249 565.817 45.0249H623.693L635.27 26.8422H564.496C536.05 26.8422 512.904 49.9851 512.904 78.0811C512.904 106.512 536.05 129.32 564.162 129.32ZM189.46 111.468H132.246C114.059 111.468 99.1751 96.5947 99.1751 78.412C99.1751 59.902 114.059 45.3558 132.246 45.3558H189.129C207.647 45.3558 222.531 60.2293 222.531 78.412C222.531 96.5947 207.647 111.468 189.46 111.468ZM130.922 129.32H190.453C218.893 129.32 241.711 106.512 241.711 78.0811C241.711 49.6542 218.893 26.8422 190.453 26.8422H130.922C102.813 26.8422 79.6636 49.9851 79.6636 78.0811C79.6636 106.512 102.813 129.32 130.922 129.32ZM338.945 96.2638C358.125 96.2638 373.667 80.7285 373.667 61.553C373.667 42.3775 358.125 26.8422 338.945 26.8422H252.626V129.32H272.472V45.0249H337.624C346.883 45.0249 354.156 52.298 354.156 61.553C354.156 70.8116 346.883 78.0811 337.624 78.0811H282.058L340.931 129.32H369.702L330.013 95.9328H338.945M665.361 111.468V26.8422H645.518V119.734C645.518 122.378 646.515 124.691 648.494 126.676C650.477 128.662 653.122 129.651 655.771 129.651H745.728L757.301 111.468H665.361ZM423.94 93.2891H476.522L448.745 48.3305L397.479 129.32H373.998L436.175 32.1333C438.82 28.1659 443.451 25.853 448.413 25.853C453.372 25.853 457.673 28.1659 460.318 32.1333L522.821 129.651H499.675L488.761 111.468H435.516L423.94 93.2891Z" fill="#959E99"/>
<path d="M89.2593 191.145H115.383L147.119 257.588V191.145H164.008V275.763H139.178L106.459 205.338V275.427H89.2593V191.145Z" fill="#959E99"/>
<path d="M183.174 191.145H239.741V205.028H201.357V225.194H237.413V239.077H201.357V261.879H241.06V275.763H183.174V191.145Z" fill="#959E99"/>
<path d="M276.106 205.028H250.966V191.145H319.766V205.028H294.626V275.763H276.443V205.028H276.106Z" fill="#959E99"/>
<path d="M341.59 250.969C341.921 256.919 342.583 267.828 362.091 267.828C379.619 267.828 381.937 256.919 381.937 252.624C381.937 243.038 374.333 241.383 362.425 238.409C349.525 235.103 343.907 233.779 339.603 230.805C332.662 226.175 330.675 219.895 330.675 214.277C330.675 197.087 346.883 189.486 362.756 189.486C368.377 189.486 379.619 190.475 386.568 197.749C391.196 203.04 391.527 208.658 391.858 212.295H379.619C378.961 201.712 370.029 199.4 361.763 199.4C350.19 199.4 342.91 204.691 342.91 212.953C342.91 220.557 347.873 222.87 358.125 225.517C378.299 230.805 380.616 231.136 385.575 234.441C393.514 239.732 393.845 247.664 393.845 251.3C393.845 266.174 382.268 277.745 360.439 277.745C354.156 277.745 340.931 276.756 334.317 268.159C329.354 261.879 329.354 255.268 329.354 250.969H341.59Z" fill="#959E99"/>
<path d="M424.271 191.138V243.366C424.271 252.293 426.253 256.257 427.905 258.574C433.199 265.516 441.465 266.836 447.089 266.836C469.908 266.836 469.908 248.988 469.908 242.707V191.138H481.15V243.366C481.15 247.995 481.15 257.25 474.208 265.843C465.938 276.426 453.041 277.415 446.758 277.415C438.82 277.415 424.602 275.102 416.994 263.865C414.349 260.225 412.032 255.268 412.032 242.707V191.138H424.271Z" fill="#959E99"/>
<path d="M505.631 275.763H517.192V191.145H505.631V275.763Z" fill="#959E99"/>
<path d="M562.843 275.763V201.047H534.392V191.145H602.52V201.047H574.095V275.763H562.843Z" fill="#959E99"/>
<path d="M616.746 191.145H669.665V201.047H628.333V227.495H667.673V237.422H628.333V265.525H670.648V275.763H616.746V191.145Z" fill="#959E99"/>
</svg>
